<?xml version="1.0" encoding="UTF-8" standalone="no"?>
<!-- Created with Inkscape (http://www.inkscape.org/) -->

<svg
   width="57.711487mm"
   height="57.711498mm"
   viewBox="0 0 57.711487 57.711498"
   version="1.1"
   id="svg1"
   xml:space="preserve"
   xmlns="http://www.w3.org/2000/svg"
   xmlns:svg="http://www.w3.org/2000/svg"><defs
     id="defs1" /><g
     id="layer1"
     style="display:inline"
     transform="translate(-6.9282992,-2.3195745)"><g
       id="g39"
       style="display:inline;fill:#0e3c19"
       transform="translate(-12.7,-97.102083)"><circle
         style="display:inline;fill:#565f89;fill-opacity:1;stroke-width:0.264583"
         id="path1"
         cx="48.484047"
         cy="128.2774"
         r="28.855747" /><circle
         style="display:inline;fill:#24283b;fill-opacity:1;stroke-width:0.264583"
         id="path3"
         cx="48.484047"
         cy="128.2774"
         r="26.668898" /><path
         id="circle52"
         style="display:inline;fill:#24283b;fill-opacity:1;stroke-width:0.264583"
         d="m 25.112162,141.12214 c 4.68587,8.52607 13.642811,13.82395 23.3717,13.82396 9.729075,1.8e-4 18.686258,-5.29773 23.372217,-13.82396 z" /></g><g
       id="g27"
       style="display:inline"
       transform="translate(-12.7,-97.102083)"><g
         id="g3"
         style="display:inline"><rect
           style="fill:#ff9e64;fill-opacity:1;stroke:none;stroke-width:0.269714;stroke-opacity:1"
           id="rect2"
           width="3.4132574"
           height="4.733305"
           x="45.522629"
           y="145.8082"
           ry="1.1306326" /><rect
           style="fill:#414868;fill-opacity:1;stroke:none;stroke-width:0.264583;stroke-opacity:1"
           id="rect3"
           width="1.9234914"
           height="0.69773704"
           x="46.314655"
           y="150.52263"
           ry="0.25457186" /><rect
           style="fill:#414868;fill-opacity:1;stroke:none;stroke-width:0.264583;stroke-opacity:1"
           id="rect3-3"
           width="1.9234914"
           height="0.69773704"
           x="46.226078"
           y="145.1814"
           ry="0.25457186" /></g><g
         id="g6"
         transform="translate(7.2036639,-1.1691811)"
         style="display:inline"><rect
           style="fill:#e0af68;fill-opacity:1;stroke:none;stroke-width:0.269714;stroke-opacity:1"
           id="rect4"
           width="3.4132574"
           height="4.733305"
           x="45.522629"
           y="145.8082"
           ry="1.1306326" /><rect
           style="fill:#414868;fill-opacity:1;stroke:none;stroke-width:0.264583;stroke-opacity:1"
           id="rect5"
           width="1.9234914"
           height="0.69773704"
           x="46.314655"
           y="150.52263"
           ry="0.25457186" /><rect
           style="fill:#414868;fill-opacity:1;stroke:none;stroke-width:0.264583;stroke-opacity:1"
           id="rect6"
           width="1.9234914"
           height="0.69773704"
           x="46.226078"
           y="145.1814"
           ry="0.25457186" /></g><g
         id="g9"
         transform="translate(14.369612,-2.979526)"
         style="display:inline"><rect
           style="fill:#ff9e64;fill-opacity:1;stroke:none;stroke-width:0.269714;stroke-opacity:1"
           id="rect7"
           width="3.4132574"
           height="4.733305"
           x="45.522629"
           y="145.8082"
           ry="1.1306326" /><rect
           style="fill:#414868;fill-opacity:1;stroke:none;stroke-width:0.264583;stroke-opacity:1"
           id="rect8"
           width="1.9234914"
           height="0.69773704"
           x="46.314655"
           y="150.52263"
           ry="0.25457186" /><rect
           style="fill:#414868;fill-opacity:1;stroke:none;stroke-width:0.264583;stroke-opacity:1"
           id="rect9"
           width="1.9234914"
           height="0.69773704"
           x="46.226078"
           y="145.1814"
           ry="0.25457186" /></g><path
         id="path40"
         style="display:inline;fill:none;stroke:#565f89;stroke-width:0.264583;stroke-opacity:1"
         d="m 27.047224,144.14223 c 3.55484,0.5747 7.145174,0.92979 10.743724,1.06251 3.194106,0.1178 6.396345,0.0604 9.579742,-0.22629 3.772921,-0.33974 7.519528,-1.00239 11.163794,-2.03664 2.934811,-0.83291 5.801341,-1.90628 8.561422,-3.20582" /></g><g
       id="g54"
       style="display:inline"
       transform="translate(-12.7,-97.102083)"><path
         style="display:inline;fill:#a9b1d6;fill-opacity:1;stroke:none;stroke-width:0.264583;stroke-opacity:1"
         d="m 27.411763,141.12214 c 0,0 0.110681,-0.049 0.110867,-0.13798 0.0018,-0.88232 -0.01997,-5.67995 -2.79e-4,-5.687 0.562335,-0.20136 8.234862,-2.97271 11.774268,-5.21961 3.675863,-2.33353 10.280861,-8.7874 10.280861,-8.7874 0,0 0.523592,0.1499 0.787192,0.12659 0.236423,-0.0209 0.67385,-0.23678 0.67385,-0.23678 l 0.914601,-0.0566 c 0,0 0.175126,0.10185 0.272865,0.11027 0.09949,0.009 0.292867,-0.0631 0.292867,-0.0631 l 0.57902,0.0423 c 0,0 3.672501,3.5859 5.634588,5.20885 1.740117,1.43934 6.126292,4.59858 6.126292,4.59858 v 10.10188"
         id="path30" /><path
         style="display:inline;fill:#c0caf5;fill-opacity:1;stroke:none;stroke-width:0.264583;stroke-opacity:1"
         d="m 43.992897,126.42077 3.585229,-1.0921 -0.480872,1.58405 3.620687,-1.75377 1.970636,2.04606 0.612878,-1.53691 2.140355,0.90518 -0.01886,-1.02775 3.447654,0.98951 -5.772729,-5.32221 -0.57902,-0.0423 c 0,0 -0.193373,0.0717 -0.292867,0.0631 -0.09774,-0.008 -0.272865,-0.11027 -0.272865,-0.11027 l -0.914601,0.0566 c 0,0 -0.433086,0.244 -0.801446,0.23705 -0.226456,-0.004 -0.659596,-0.12686 -0.659596,-0.12686 z"
         id="path31" /></g><g
       id="g31"
       style="display:inline"
       transform="translate(-12.7,-97.102083)"><path
         id="path32"
         style="display:inline;fill:#f7768e;fill-opacity:1;stroke:none;stroke-width:0.264583;stroke-opacity:1"
         d="m 38.589893,106.79607 -0.0067,2.19314 -0.0801,-0.007 -0.219625,5.52731 h -0.506945 l -0.03359,2.64686 0.127124,0.35967 -0.06666,0.3669 h 0.146245 l -0.752926,9.60769 h -0.846977 l 0.259933,2.01331 h 0.406693 c 0,0 -0.698679,3.98968 -1.312064,5.76761 -0.600567,1.74078 -2.003479,4.48335 -2.688208,5.87406 l 2.067057,-0.007 h 0.144694 a 3.5881596,2.8911192 0 0 1 -0.0052,-0.15864 3.5881596,2.8911192 0 0 1 3.588412,-2.8913 3.5881596,2.8911192 0 0 1 3.587894,2.8913 3.5881596,2.8911192 0 0 1 -0.0052,0.15864 h 0.149861 l 2.393653,-0.0196 c 0,0 -2.25768,-3.50036 -2.986898,-5.46323 -0.714792,-1.92403 -1.327051,-6.10453 -1.327051,-6.10453 h 0.340031 l 0.259933,-2.02675 h -0.84646 l -0.79375,-9.66763 h 0.146761 l -0.01964,-0.39998 0.09974,-0.31987 0.01344,-2.66031 h -0.56689 l -0.19327,-5.52059 h -0.08682 v -2.16007 z" /><path
         style="fill:#ff9e64;fill-opacity:1;fill-rule:nonzero;stroke:none;stroke-width:0.0470958;stroke-dasharray:none;stroke-opacity:1"
         d="m 36.609729,129.50417 4.353716,0.047 0.260022,-2.02683 -4.873758,-0.0337 z"
         id="path54" /><path
         style="display:inline;fill:#ff9e64;fill-opacity:1;fill-rule:nonzero;stroke:none;stroke-width:0.0470958;stroke-dasharray:none;stroke-opacity:1"
         d="m 37.441573,124.36474 h 2.675853 l -0.26035,-3.17232 H 37.69034 Z"
         id="path55" /><path
         style="fill:#ff9e64;fill-opacity:1;fill-rule:nonzero;stroke:none;stroke-width:0.0470958;stroke-dasharray:none;stroke-opacity:1"
         d="m 37.949843,117.8832 h -0.14668 l 0.06667,-0.3667 -0.126677,-0.36003 0.0186,-1.47685 h 2.055569 l -0.0073,1.45718 -0.100007,0.32003 0.02,0.40003 h -0.14668 z"
         id="path56" /><path
         style="fill:#ff9e64;fill-opacity:1;fill-rule:nonzero;stroke:none;stroke-width:0.0470958;stroke-dasharray:none;stroke-opacity:1"
         d="m 38.378616,112.1125 0.79502,-0.006 -0.110341,-3.15044 c -0.516203,0 -0.558013,-0.003 -0.558013,-0.003 z"
         id="path57" /></g><g
       id="g26"
       style="display:inline"
       transform="translate(-12.7,-97.102083)"><path
         id="rect10"
         style="fill:#b4f9f8;stroke-width:0.264583"
         d="m 59.128492,132.0986 h 4.148723 c 0.141033,0 0.254572,0.11354 0.254572,0.25457 v 8.76897 H 58.87392 v -8.76897 c 0,-0.14103 0.113539,-0.25457 0.254572,-0.25457 z" /><path
         id="rect11"
         style="fill:#2ac3de;stroke-width:0.264583"
         d="m 65.113329,124.19706 h 4.104576 c 0.141032,0 0.254571,0.11354 0.254571,0.25457 v 16.67051 c 0,0 -4.621054,0 -4.613719,0 v -16.67051 c 0,-0.14103 0.113539,-0.25457 0.254572,-0.25457 z" /><path
         id="rect12"
         style="fill:#bb9af7;stroke-width:0.264583"
         d="m 69.113665,118.75661 h 3.091156 c 0.141033,0 0.254572,0.11354 0.254572,0.25457 v 20.51722 c 0,0.14103 -0.414083,0.73745 -0.554597,0.75005 l -2.791131,0.24002 c -0.140514,0.0121 -0.254572,-0.11354 -0.254572,-0.25457 v -21.25267 c 0,-0.14103 0.113539,-0.25457 0.254572,-0.25457 z" /><rect
         style="fill:#2ac3de;fill-opacity:1;stroke:none;stroke-width:0.264583;stroke-opacity:1"
         id="rect15"
         width="4.640388"
         height="13.974503"
         x="29.01576"
         y="128.06404"
         ry="0.25457186" /><rect
         style="display:none;fill:#73daca;fill-opacity:1;stroke:none;stroke-width:0.264583;stroke-opacity:1"
         id="rect53"
         width="4.6937261"
         height="11.494295"
         x="70.725914"
         y="128.46408"
         ry="0.25457186" /><path
         id="circle53"
         style="display:inline;fill:#73daca;fill-opacity:1;stroke-width:0.264583"
         d="m 70.98068,128.46399 c -0.141032,0 -0.254764,0.11374 -0.254764,0.25477 v 10.98486 c 0,0.14103 0.113732,0.25476 0.254764,0.25476 h 1.477946 a 26.668898,26.668898 0 0 0 2.693893,-11.49439 z" /><path
         id="circle54"
         style="display:inline;fill:#7aa2f7;fill-opacity:1;stroke-width:0.264583"
         d="m 22.492684,122.30365 a 26.668898,26.668898 0 0 0 -0.677478,5.97379 26.668898,26.668898 0 0 0 3.361552,12.96097 h 2.090828 c 0.141033,0 0.254765,-0.11322 0.254765,-0.25425 v -18.42627 c 0,-0.14103 -0.113732,-0.25424 -0.254765,-0.25424 z" /></g><g
       id="g25"
       style="display:inline"
       transform="translate(-12.7,-97.102083)"><circle
         style="fill:#c0caf5;fill-opacity:1;stroke:none;stroke-width:0.264583;stroke-opacity:1"
         id="path15"
         cx="33.509468"
         cy="112.44941"
         r="0.65338796" /><circle
         style="fill:#c0caf5;fill-opacity:1;stroke:none;stroke-width:0.264583;stroke-opacity:1"
         id="circle15"
         cx="45.750492"
         cy="117.35648"
         r="0.65338796" /><circle
         style="fill:#e0af68;fill-opacity:1;stroke:none;stroke-width:0.264583;stroke-opacity:1"
         id="circle16"
         cx="50.550896"
         cy="110.68926"
         r="0.65338796" /><path
         id="path16"
         style="fill:#cfc9c2;fill-opacity:1;stroke:none;stroke-width:0.264583;stroke-opacity:1"
         d="m 57.667327,108.55679 a 2.8135686,2.8135686 0 0 1 1.191142,2.29237 2.8135686,2.8135686 0 0 1 -2.813782,2.81378 2.8135686,2.8135686 0 0 1 -1.651579,-0.54053 3.3069434,3.3069434 0 0 0 3.051493,2.03398 3.3069434,3.3069434 0 0 0 3.307292,-3.30677 3.3069434,3.3069434 0 0 0 -3.084566,-3.29283 z" /><path
         style="fill:#e0af68;fill-opacity:1;stroke:none;stroke-width:0.264583;stroke-opacity:1"
         id="path22"
         d="m 29.814117,117.9428 -0.289771,-0.71607 -0.716074,-0.28977 0.716074,-0.28977 0.289771,-0.71608 0.289772,0.71608 0.716074,0.28977 -0.716074,0.28977 z" /><path
         style="fill:#c0caf5;fill-opacity:1;stroke:none;stroke-width:0.264583;stroke-opacity:1"
         id="path23"
         d="m 29.814117,117.9428 -0.289771,-0.71607 -0.716074,-0.28977 0.716074,-0.28977 0.289771,-0.71608 0.289772,0.71608 0.716074,0.28977 -0.716074,0.28977 z"
         transform="matrix(1.2999707,0,0,1.2999707,6.9914445,-45.506)" /><path
         style="fill:#c0caf5;fill-opacity:1;stroke:none;stroke-width:0.264583;stroke-opacity:1"
         id="path24"
         d="m 29.814117,117.9428 -0.289771,-0.71607 -0.716074,-0.28977 0.716074,-0.28977 0.289771,-0.71608 0.289772,0.71608 0.716074,0.28977 -0.716074,0.28977 z"
         transform="matrix(1.2999707,0,0,1.2999707,23.982286,-35.549103)" /><path
         style="display:inline;fill:#e0af68;fill-opacity:1;stroke:none;stroke-width:0.264583;stroke-opacity:1"
         id="path25"
         d="m 29.814117,117.9428 -0.289771,-0.71607 -0.716074,-0.28977 0.716074,-0.28977 0.289771,-0.71608 0.289772,0.71608 0.716074,0.28977 -0.716074,0.28977 z"
         transform="matrix(0.98125181,0,0,0.97187773,36.445275,-1.0581819)" /></g><g
       id="g29"
       style="display:inline"
       transform="translate(-12.7,-97.102083)"><path
         id="path27"
         style="display:inline;fill:#565f89;fill-opacity:1;stroke:none;stroke-width:0.264583;stroke-opacity:1"
         d="m 44.443799,130.97082 0.413411,1.16013 0.6134,0.21343 0.199987,0.66662 1.653129,0.0935 -0.07958,1.1467 H 45.73726 l -0.06666,0.91984 h 1.440222 l -0.52156,5.9511 h 1.188186 l 0.426848,-5.9377 h 5.586739 l 0.396641,5.9377 h 1.202111 l -0.491843,-5.97749 h 1.413351 l -0.01344,-0.86661 h -1.466578 l -0.09353,-1.18701 h 1.560112 l 0.253731,-0.74672 0.573092,-0.10646 0.466638,-1.2671 c 0,0 -4.382464,0.88625 -6.573759,0.88625 -2.191295,0 -6.573759,-0.88625 -6.573759,-0.88625 z m 5.980513,2.15387 -0.02015,1.09968 -2.079977,-0.0264 c 0,0 0.03999,-1.04034 0.06666,-1.05368 0.02667,-0.0133 2.033467,-0.0196 2.033467,-0.0196 z m 1.264006,0.006 c 0,0 2.006797,0.007 2.033467,0.0202 0.02667,0.0133 0.06666,1.05368 0.06666,1.05368 l -2.079976,0.0263 z" /></g><g
       id="g38"
       style="display:inline"
       transform="translate(-12.7,-97.102083)"><g
         id="g50"
         style="display:none"><path
           style="fill:#f7768e;fill-opacity:1;stroke:none;stroke-width:0.109318;stroke-dasharray:none;stroke-opacity:1"
           d="m 28.905683,142.30369 c 0,0 -1.092111,0.4935 -1.415217,0.96403 -0.319067,0.46463 -0.386572,1.64615 -0.386572,1.64615 l 0.963879,0.0141 0.01947,0.76859 c 0,0 1.138215,-0.39852 1.52681,-0.82761 0.379158,-0.41865 0.656367,-1.56225 0.656367,-1.56225 0,0 0.307483,1.24262 0.735282,1.67873 0.372054,0.37924 1.447414,0.66738 1.447414,0.66738 l 0.04873,-0.80833 0.89043,0.14153 c 0,0 -0.0197,-1.13837 -0.294861,-1.60919 -0.288436,-0.49353 -1.317976,-1.09722 -1.317976,-1.09722 0,0 1.173177,0.0727 1.679904,-0.17298 0.481197,-0.2329 1.118608,-1.14929 1.118608,-1.14929 l -0.71907,-0.438 0.371158,-0.70116 c 0,0 -1.063914,-0.35799 -1.585035,-0.23967 -0.566272,0.12841 -1.4414,0.9782 -1.4414,0.9782 0,0 0.44835,-1.20967 0.389812,-1.75405 -0.05856,-0.54436 -0.741049,-1.51213 -0.741049,-1.51213 l -0.432748,0.63171 -0.767488,-0.72599 c 0,0 -0.616799,1.06682 -0.63108,1.65801 -0.01461,0.60086 0.559329,1.71424 0.559329,1.71424 0,0 -1.01894,-0.87078 -1.648315,-1.00455 -0.581627,-0.12362 -1.769174,0.22846 -1.769174,0.22846 l 0.564278,0.82335 -0.810172,0.34583 c 0,0 0.777147,0.83886 1.284297,1.06939 0.52381,0.23806 1.704392,0.27293 1.704392,0.27293 z"
           id="path35" /><path
           style="fill:#f7768e;fill-opacity:1;stroke:none;stroke-width:0.0813174;stroke-dasharray:none;stroke-opacity:1"
           d="m 33.908918,150.04537 c 0,0 -0.866019,0.17809 -1.175632,0.4682 -0.305746,0.2865 -0.548677,1.13963 -0.548677,1.13963 l 0.690483,0.17122 -0.112489,0.56559 c 0,0 0.883513,-0.1008 1.233372,-0.3497 0.34136,-0.24279 0.728753,-1.03306 0.728753,-1.03306 0,0 0.01649,0.96066 0.252143,1.35141 0.204955,0.33981 0.930312,0.73079 0.930312,0.73079 l 0.168029,-0.58325 0.6166,0.25268 c 0,0 0.173166,-0.8362 0.05291,-1.22674 -0.12606,-0.40942 -0.766563,-1.02359 -0.766563,-1.02359 0,0 0.831198,0.2494 1.235668,0.1549 0.384122,-0.0897 0.992968,-0.65346 0.992968,-0.65346 l -0.444657,-0.44094 0.382097,-0.4508 c 0,0 -0.705636,-0.44016 -1.099593,-0.44089 -0.428057,-9.5e-4 -1.196777,0.47419 -1.196777,0.47419 0,0 0.521246,-0.80993 0.56876,-1.21803 0.0475,-0.40809 -0.283704,-1.23048 -0.283704,-1.23048 l -0.414926,0.38967 -0.432066,-0.65974 c 0,0 -0.618791,0.6772 -0.726335,1.10734 -0.109379,0.43716 0.119857,1.34791 0.119857,1.34791 0,0 -0.588938,-0.8078 -1.019204,-1.01112 -0.397651,-0.18778 -1.308947,-0.12921 -1.308947,-0.12921 l 0.270011,0.69695 -0.639109,0.11722 c 0,0 0.42043,0.74394 0.746945,0.99758 0.337244,0.26192 1.179888,0.48523 1.179888,0.48523 z"
           id="path36" /><path
           style="fill:#c0caf5;fill-opacity:1;stroke:none;stroke-width:0.0566861;stroke-dasharray:none;stroke-opacity:1"
           d="m 41.770719,153.91096 c 0,0 -0.579617,0.22413 -0.760423,0.45846 -0.178546,0.23139 -0.247443,0.84119 -0.247443,0.84119 l 0.498646,0.035 -0.01201,0.39848 c 0,0 0.60076,-0.17363 0.814281,-0.38462 0.208338,-0.20587 0.384718,-0.79 0.384718,-0.79 0,0 0.123498,0.6522 0.332461,0.89029 0.181734,0.20705 0.730224,0.38711 0.730224,0.38711 l 0.04845,-0.4171 0.456961,0.0988 c 0,0 0.02249,-0.58996 -0.106432,-0.84163 -0.135157,-0.26381 -0.650857,-0.60595 -0.650857,-0.60595 0,0 0.60535,0.0711 0.874739,-0.0413 0.255829,-0.10675 0.612176,-0.5629 0.612176,-0.5629 l -0.359711,-0.24744 0.212311,-0.35236 c 0,0 -0.540556,-0.21591 -0.813764,-0.16964 -0.296872,0.0502 -0.774388,0.46505 -0.774388,0.46505 0,0 0.26689,-0.61343 0.252219,-0.89695 -0.01467,-0.28353 -0.340232,-0.8042 -0.340232,-0.8042 l -0.242205,0.31463 -0.376507,-0.39793 c 0,0 -0.349997,0.53462 -0.374377,0.8403 -0.02482,0.31068 0.240341,0.90362 0.240341,0.90362 0,0 -0.502537,-0.48013 -0.824552,-0.56747 -0.297578,-0.0808 -0.922552,0.0675 -0.922552,0.0675 l 0.268501,0.4425 -0.429403,0.15577 c 0,0 0.378266,0.45666 0.634221,0.59058 0.264361,0.13831 0.874604,0.19029 0.874604,0.19029 z"
           id="path37" /><path
           style="fill:#f7768e;fill-opacity:1;stroke:none;stroke-width:0.10966;stroke-dasharray:none;stroke-opacity:1"
           d="m 67.191902,141.40764 c 0,0 -1.095538,0.49501 -1.419662,0.96699 -0.320076,0.4661 -0.387808,1.65132 -0.387808,1.65132 l 0.966895,0.0142 0.0195,0.77098 c 0,0 1.141786,-0.39974 1.531601,-0.83017 0.380354,-0.41997 0.658446,-1.56712 0.658446,-1.56712 0,0 0.308429,1.2465 0.737561,1.68398 0.373214,0.38044 1.451937,0.66947 1.451937,0.66947 l 0.04889,-0.81084 0.893228,0.14182 c 0,0 -0.01977,-1.14196 -0.295761,-1.61423 -0.28933,-0.4951 -1.322085,-1.1007 -1.322085,-1.1007 0,0 1.176905,0.0721 1.685166,-0.17349 0.482707,-0.23361 1.122128,-1.15285 1.122128,-1.15285 l -0.721313,-0.4394 0.372332,-0.70336 c 0,0 -1.067242,-0.35911 -1.589992,-0.2405 -0.568047,0.12878 -1.445929,0.98123 -1.445929,0.98123 0,0 0.449774,-1.21344 0.391061,-1.75953 -0.05872,-0.54607 -0.743349,-1.51688 -0.743349,-1.51688 l -0.434111,0.63366 -0.769882,-0.72826 c 0,0 -0.618746,1.07015 -0.633081,1.66319 -0.01466,0.60277 0.561055,1.71963 0.561055,1.71963 0,0 -1.02212,-0.87353 -1.653461,-1.00772 -0.583442,-0.12411 -1.774718,0.22914 -1.774718,0.22914 l 0.566034,0.82593 -0.812718,0.3469 c 0,0 0.779568,0.84152 1.288305,1.07276 0.525445,0.23882 1.709724,0.27384 1.709724,0.27384 z"
           id="path38" /></g><path
         style="fill:#cfc9c2;fill-opacity:1;stroke:none;stroke-width:0.0470958;stroke-dasharray:none;stroke-opacity:1"
         d="m 40.7139,148.70286 c 0,0 -0.456853,0.24053 -0.583602,0.45125 -0.125165,0.20808 -0.123563,0.71793 -0.123563,0.71793 l 0.414869,-0.0189 0.02829,0.33001 c 0,0 0.479142,-0.20088 0.635127,-0.39548 0.152198,-0.18987 0.24176,-0.68884 0.24176,-0.68884 0,0 0.164444,0.5264 0.359719,0.70285 0.169829,0.15345 0.639742,0.24947 0.639742,0.24947 v -0.34887 l 0.386586,0.0377 c 0,0 -0.03799,-0.48903 -0.168519,-0.68436 -0.136832,-0.20476 -0.595222,-0.43768 -0.595222,-0.43768 0,0 0.506393,6.6e-4 0.717934,-0.11794 0.200894,-0.11263 0.451246,-0.52323 0.451246,-0.52323 l -0.32058,-0.16972 0.141434,-0.31115 c 0,0 -0.466802,-0.12636 -0.687836,-0.062 -0.240188,0.0699 -0.594494,0.45803 -0.594494,0.45803 0,0 0.161447,-0.53183 0.12216,-0.76441 -0.03929,-0.23258 -0.35788,-0.63106 -0.35788,-0.63106 l -0.16972,0.28287 -0.348869,-0.2923 c 0,0 -0.237588,0.47476 -0.228403,0.72936 0.0093,0.25878 0.284973,0.72269 0.284973,0.72269 0,0 -0.460756,-0.34805 -0.734877,-0.38926 -0.253326,-0.0381 -0.754886,0.14411 -0.754886,0.14411 l 0.264006,0.33944 -0.339439,0.16972 c 0,0 0.355949,0.3406 0.580019,0.42658 0.231428,0.0888 0.740025,0.0732 0.740025,0.0732 z"
         id="path33" /><path
         style="fill:#f7768e;fill-opacity:1;stroke:none;stroke-width:0.0629963;stroke-dasharray:none;stroke-opacity:1"
         d="m 37.386402,143.65757 c 0,0 -0.622702,0.29867 -0.802667,0.57399 -0.177716,0.27188 -0.201083,0.95346 -0.201083,0.95346 l 0.555495,-0.005 0.02131,0.44254 c 0,0 0.65051,-0.24454 0.86875,-0.49685 0.212939,-0.24618 0.357619,-0.90868 0.357619,-0.90868 0,0 0.193474,0.71186 0.445667,0.95749 0.21933,0.21361 0.842651,0.36548 0.842651,0.36548 l 0.01745,-0.46634 0.514854,0.0698 c 0,0 -0.02631,-0.65559 -0.191018,-0.92321 -0.172658,-0.28055 -0.773727,-0.61482 -0.773727,-0.61482 0,0 0.676855,0.0262 0.965552,-0.12172 0.274166,-0.14051 0.62935,-0.67683 0.62935,-0.67683 l -0.420024,-0.2429 0.204619,-0.40882 c 0,0 -0.617645,-0.19227 -0.916318,-0.11725 -0.324553,0.0814 -0.817566,0.58249 -0.817566,0.58249 0,0 0.24241,-0.7028 0.201533,-1.01566 -0.04089,-0.31285 -0.446802,-0.86143 -0.446802,-0.86143 l -0.241013,0.36962 -0.451704,-0.40817 c 0,0 -0.341333,0.62272 -0.341793,0.9635 -5.25e-4,0.34636 0.344764,0.98026 0.344764,0.98026 0,0 -0.598472,-0.48828 -0.962825,-0.55708 -0.336712,-0.0635 -1.016253,0.15486 -1.016253,0.15486 l 0.33591,0.46694 -0.462212,0.20988 c 0,0 0.458751,0.47308 0.753959,0.59922 0.304904,0.13027 0.985518,0.13485 0.985518,0.13485 z"
         id="path34" /><path
         id="path45"
         style="display:inline;fill:#f7768e;fill-opacity:1;stroke:none;stroke-width:0.0813174;stroke-dasharray:none;stroke-opacity:1"
         d="m 33.314246,150.2115 a 26.668898,26.668898 0 0 0 1.365291,0.88419 c 0.02887,-0.055 0.04496,-0.0884 0.04496,-0.0884 0,0 0.0011,0.0442 0.0047,0.11782 a 26.668898,26.668898 0 0 0 2.040186,1.11053 c 0.02393,-0.24505 0.03099,-0.52211 -0.02481,-0.70332 -0.12606,-0.40942 -0.766361,-1.02371 -0.766361,-1.02371 0,0 0.831113,0.24953 1.235583,0.15503 0.384122,-0.0897 0.993221,-0.6537 0.993221,-0.6537 l -0.444934,-0.4408 0.382406,-0.45114 c 0,0 -0.705718,-0.44007 -1.099675,-0.4408 -0.428057,-9.5e-4 -1.196826,0.47439 -1.196826,0.47439 0,0 0.520927,-0.80991 0.568441,-1.21801 0.0475,-0.40809 -0.283704,-1.23042 -0.283704,-1.23042 l -0.414445,0.38964 -0.432532,-0.65991 c 0,0 -0.618509,0.67729 -0.726053,1.10743 -0.109379,0.43716 0.119889,1.34772 0.119889,1.34772 0,0 -0.588793,-0.80747 -1.019059,-1.01079 -0.397651,-0.18778 -1.308964,-0.12919 -1.308964,-0.12919 l 0.269751,0.6966 -0.639238,0.1173 c 0,0 0.420726,0.74423 0.747241,0.99787 0.337244,0.26192 1.179773,0.48524 1.179773,0.48524 v 5.2e-4 c 0,0 -0.290326,0.0593 -0.594795,0.16588 z" /><path
         id="path46"
         style="display:inline;fill:#c0caf5;fill-opacity:1;stroke:none;stroke-width:0.109318;stroke-dasharray:none;stroke-opacity:1"
         d="m 27.170951,144.30799 a 26.668898,26.668898 0 0 0 0.47594,0.61391 l 0.420646,0.006 0.01344,0.52349 a 26.668898,26.668898 0 0 0 0.15968,0.18758 c 0.324053,-0.1251 1.073062,-0.43816 1.37356,-0.76998 0.379158,-0.41865 0.656291,-1.56269 0.656291,-1.56269 0,0 0.307556,1.24286 0.735355,1.67897 0.372054,0.37924 1.447457,0.66714 1.447457,0.66714 l 0.04858,-0.80822 0.890385,0.14159 c 0,0 -0.01991,-1.13838 -0.295072,-1.6092 -0.288436,-0.49353 -1.317749,-1.09709 -1.317749,-1.09709 0,0 1.173273,0.0726 1.68,-0.17312 0.481197,-0.2329 1.118278,-1.14928 1.118278,-1.14928 l -0.718819,-0.4377 0.371037,-0.70125 c 0,0 -1.063795,-0.3581 -1.584916,-0.23978 -0.566272,0.12841 -1.441256,0.97824 -1.441256,0.97824 0,0 0.448178,-1.20952 0.38964,-1.7539 -0.05856,-0.54436 -0.74104,-1.51257 -0.74104,-1.51257 l -0.432531,0.632 -0.767912,-0.72605 c 0,0 -0.616688,1.06659 -0.630969,1.65778 -0.01461,0.60086 0.559655,1.71462 0.559655,1.71462 0,0 -1.019103,-0.87082 -1.648478,-1.00459 -0.581627,-0.12362 -1.769401,0.22841 -1.769401,0.22841 l 0.564307,0.82321 -0.810287,0.34571 c 0,0 0.777526,0.83917 1.284676,1.0697 0.517973,0.23541 1.677977,0.27207 1.703772,0.27286 -0.02469,0.0112 -1.095527,0.49867 -1.4149,0.96376 -0.166024,0.24177 -0.263629,0.67774 -0.319361,1.04025 z" /><path
         id="path50"
         style="display:inline;fill:#c0caf5;fill-opacity:1;stroke:none;stroke-width:0.0566861;stroke-dasharray:none;stroke-opacity:1"
         d="m 41.52098,154.02109 a 26.668898,26.668898 0 0 0 2.366264,0.52607 c -0.16223,-0.25713 -0.627869,-0.56638 -0.627869,-0.56638 0,0 0.605493,0.0711 0.874882,-0.0413 0.255829,-0.10675 0.611849,-0.56276 0.611849,-0.56276 l -0.359668,-0.24753 0.21239,-0.35191 c 0,0 -0.540696,-0.21629 -0.813904,-0.17002 -0.296872,0.0502 -0.774113,0.46509 -0.774113,0.46509 0,0 0.266852,-0.61358 0.252181,-0.8971 -0.01467,-0.28353 -0.340547,-0.80409 -0.340547,-0.80409 l -0.241846,0.31471 -0.376721,-0.39791 c 0,0 -0.349758,0.53458 -0.374138,0.84026 -0.02482,0.31068 0.240296,0.90382 0.240296,0.90382 0,0 -0.502741,-0.48006 -0.824756,-0.5674 -0.297578,-0.0808 -0.922424,0.0672 -0.922424,0.0672 l 0.2682,0.44287 -0.428914,0.15555 c 0,0 0.378115,0.45674 0.63407,0.59066 0.261833,0.13699 0.862894,0.18918 0.874365,0.19017 -0.0049,0.002 -0.113312,0.044 -0.249597,0.11007 z" /><path
         id="path49"
         style="display:inline;fill:#f7768e;fill-opacity:1;stroke:none;stroke-width:0.10966;stroke-dasharray:none;stroke-opacity:1"
         d="m 69.735278,144.38964 a 26.668898,26.668898 0 0 0 1.471228,-2.15078 c -0.405009,-0.42958 -1.131714,-0.85576 -1.131714,-0.85576 0,0 1.176908,0.0725 1.685169,-0.17311 0.02235,-0.0108 0.04476,-0.0231 0.0677,-0.0367 a 26.668898,26.668898 0 0 0 0.690397,-1.33791 l -0.357601,-0.21756 0.372587,-0.70383 c 0,0 -1.067333,-0.3589 -1.590083,-0.24029 -0.568047,0.12878 -1.445907,0.98133 -1.445907,0.98133 0,0 0.449904,-1.21349 0.391191,-1.75958 -0.05872,-0.54607 -0.743624,-1.5167 -0.743624,-1.5167 l -0.434082,0.63355 -0.769979,-0.72812 c 0,0 -0.618701,1.06991 -0.633036,1.66295 -0.01466,0.60277 0.561206,1.71979 0.561206,1.71979 0,0 -1.022305,-0.8735 -1.653646,-1.00769 -0.583442,-0.12411 -1.774569,0.22892 -1.774569,0.22892 l 0.565857,0.82579 -0.812354,0.34727 c 0,0 0.779557,0.84156 1.288294,1.0728 0.525445,0.23882 1.709456,0.27337 1.709456,0.27337 0,0 -1.095427,0.4954 -1.419551,0.96738 -0.320076,0.4661 -0.387574,1.65106 -0.387574,1.65106 l 0.966867,0.0145 0.01912,0.77102 c 0,0 1.141874,-0.40001 1.531689,-0.83044 0.380354,-0.41997 0.658358,-1.56683 0.658358,-1.56683 0,0 0.308807,1.24613 0.737939,1.68361 0.103838,0.10585 0.26203,0.20454 0.436666,0.29198 z" /></g></g></svg>
